<?xml version="1.0" encoding="UTF-8"?>
<svg id="Camada_1" data-name="Camada 1" xmlns="http://www.w3.org/2000/svg" viewBox="0 0 2000 587.14">
  <defs>
    <style>
      .cls-1 {
        fill: none;
      }

      .cls-1, .cls-2, .cls-3, .cls-4 {
        stroke-width: 0px;
      }

      .cls-2 {
        fill: #203562;
      }

      .cls-3 {
        fill: #4cac33;
      }

      .cls-4 {
        fill: #a5c614;
      }
    </style>
  </defs>
  <path class="cls-1" d="m1300.05,164.52c-58.75,0-97.91,52.77-97.91,135.75s38.83,135.42,97.91,135.42,97.91-52.78,97.91-135.42-39.17-135.75-97.91-135.75Z"/>
  <path class="cls-4" d="m1225.44,61.45l.41-.83h-147.04l-83.97,194.17h-2.66l-83.97-194.17h-150.36l163.63,327.27v151.68h140.73v-151.68l5.42-10.83c-5.82-23.57-8.88-49.21-8.88-76.79,0-125.37,62.64-211.7,166.69-238.82Z"/>
  <path class="cls-4" d="m1438.59,88.68c-37.61-23.6-84.39-36.35-138.54-36.35-26.74,0-51.67,3.14-74.61,9.12l-157.81,315.61c26.46,107.21,110.79,170.81,232.42,170.81,74.73,0,135.47-24.13,177.33-67.69-24.91-29.26-38.8-67-38.8-111.21V88.68Zm-138.54,347.01c-59.08,0-97.91-52.78-97.91-135.42s39.17-135.75,97.91-135.75,97.91,52.77,97.91,135.75-38.83,135.42-97.91,135.42Z"/>
  <path class="cls-3" d="m1058.75,300.27c0,27.58,3.06,53.22,8.88,76.79l157.81-315.61c-104.04,27.12-166.69,113.45-166.69,238.82Z"/>
  <path class="cls-4" d="m1720.04,60.63v292.75c0,50.45-24.89,78-70.36,78s-70.37-27.55-70.37-78V60.63h-140.73v28.05c65.21,40.92,102.76,114.55,102.76,211.59,0,75.77-22.9,137.19-63.96,179.91,36.61,43,97.05,67.69,172.3,67.69,126.46,0,211.09-69.7,211.09-178.9V60.63h-140.73Z"/>
  <path class="cls-3" d="m1438.59,88.68v280.29c0,44.22,13.89,81.95,38.8,111.21,41.07-42.73,63.96-104.14,63.96-179.91,0-97.04-37.55-170.67-102.76-211.59Z"/>
  <g>
    <circle class="cls-2" cx="501.66" cy="75.12" r="38.2" transform="translate(240.28 509.84) rotate(-67.5)"/>
    <path class="cls-2" d="m970.3,301.88c-2.12-5.37-1.55-9.11-3.7-14.44-55.07,32.07-104.13,57.91-112.09,61.98-18.38,9.44-36.89,17.21-55.5,23.33-18.63,6.13-36.66,11.31-54.09,15.56-3.78-16.02-10.61-30.99-20.5-44.9-9.9-13.9-19.8-27.1-29.69-39.6-9.9-12.48-18.5-24.63-25.81-36.41-7.31-11.78-10.02-23.8-8.13-36.06,1.88-12.25,9.54-25.21,22.98-38.88,13.44-13.67,35.7-28.29,66.82-43.84,12.25-6.13,19.2-13.44,20.85-21.93,1.65-8.48-.35-15.2-6.01-20.15-5.65-4.95-13.91-6.95-24.75-6.01-10.85.95-22.63,7.54-35.35,19.8-27.82,26.87-47.85,49.5-60.1,67.88-12.26,18.38-19.34,34.54-21.21,48.43-.55,4.01-.66,7.86-.54,11.62-11.44,11.46-24.07,23.48-38,36.1-17.67,16.03-36.18,32.17-55.5,48.43-19.34,16.27-38.78,31.94-58.34,47.02-19.56,15.09-37.94,28.64-55.15,40.66-17.21,12.02-32.64,21.92-46.31,29.69-13.68,7.78-24.28,12.37-31.82,13.79-4.72.95-10.37-.11-16.97-3.18-6.6-3.06-10.14-11.19-10.61-24.39-.47-13.2,4.6-33.23,15.2-60.1,10.61-26.87,30.76-63.63,60.45-110.3,1.88-3.29,6.72-8.59,14.5-15.91,7.78-7.3,16.37-14.96,25.81-22.98,9.42-8.01,18.26-15.79,26.51-23.33,8.24-7.54,13.55-13.2,15.91-16.97,2.36-3.29,4.35-7.89,6.01-13.79,1.65-5.89,2.23-11.78,1.77-17.68-.47-5.89-2.6-11.07-6.36-15.55-3.78-4.48-9.9-7.18-18.38-8.13-8.96-.94-17.57,1.54-25.81,7.43-8.25,5.9-15.67,12.97-22.27,21.21-6.61,8.25-12.49,16.86-17.68,25.81-5.19,8.96-8.96,15.8-11.31,20.5-1.05,2.11-3.22,6.05-6.49,11.81-31.34,26.82-65.63,50.03-102.51,68.96-48.25,24.77-114.11,53.6-167.44,27.66-8.54-4.15-19.01-2.32-24.06,6.31-4.52,7.72-2.27,19.89,6.31,24.06,49.43,24.04,105.24,14.08,154.39-5.61,32.82-13.15,64.19-29.37,93.85-48.37-2.34,4.73-4.7,9.54-7.08,14.52-8.02,16.74-15.2,33.71-21.56,50.91-6.37,17.21-11.56,34.06-15.56,50.56-4.01,16.51-5.3,31.11-3.89,43.84,1.41,16.97,6.36,29.45,14.85,37.48,8.48,8.01,19.8,11.07,33.94,9.19,13.19-1.41,29.45-7.43,48.78-18.03,19.32-10.61,40.06-23.68,62.23-39.24,22.15-15.55,44.42-32.52,66.81-50.91,22.39-18.38,43.24-36.17,62.58-53.39,19.32-17.2,35.81-32.76,49.5-46.67,4.66-4.74,8.77-9.03,12.39-12.92,5.84,9.9,12.97,19.97,21.55,30.25,9.42,11.31,19.32,23.93,29.7,37.83,10.36,13.91,18.84,31.01,25.45,51.26-28.28,5.19-54.68,9.44-79.19,12.73-24.52,3.3-45.84,8.02-63.98,14.14-18.14,6.13-32.41,15.09-42.78,26.86-10.36,11.79-15.56,28.52-15.56,50.2,0,3.76,1.54,8.59,4.6,14.49,3.08,5.89,7.43,11.42,13.09,16.62,5.65,5.19,12.62,9.66,20.85,13.44,8.26,3.76,17.79,5.65,28.64,5.65,2.36,0,7.53-.12,15.56-.35,8.01-.24,17.56-1.31,28.64-3.18,11.07-1.89,22.98-5.07,35.7-9.55,12.73-4.49,24.98-10.96,36.77-19.45,11.77-8.48,22.5-19.44,32.17-32.87,9.66-13.44,16.85-29.81,21.57-49.14.94-4.71,1.42-8.01,1.42-9.9,20.26-5.19,41.12-11.67,62.58-19.45,21.44-7.78,42.42-17.2,62.93-28.29,6.64-3.58,47.75-27.71,102.62-59.29-1.64-5.54-2.98-11.19-4.14-16.89Zm-281.6,161.73c-9.2,10.14-20.04,19.2-32.52,27.22-12.5,8.01-26.05,14.25-40.66,18.74-14.62,4.47-29.47,5.53-44.54,3.18-20.74-2.83-31.12-10.37-31.12-22.63,0-8.02,4.37-14.49,13.09-19.45,8.72-4.95,20.74-9.3,36.06-13.08,15.31-3.77,33.23-7.3,53.74-10.61,20.5-3.3,42.53-7.54,66.11-12.73-4.24,9.43-10.96,19.21-20.15,29.34Z"/>
  </g>
  <path class="cls-2" d="m1396.11,332.22c-48.18-7.1-95.98-17.27-142.9-30.62-13.11-3.73-26.4-7.92-39.26-11.97-25.43-8.02-51.73-16.3-78.53-21.69-43.36-8.7-53.85-3.18-106.58-1.41-41.1,1.38-139.37,64.34-139.37,64.34l-5.01,3.06c1.96,5.86,4.05,11.1,6.97,17.73l3.53,8.01,20.55-8.71c64.87-35.63,75.95-41.26,84.63-43.48,40.39-10.35,78.52-12.82,113.31-7.37,29.89,4.68,59.49,14.01,88.13,23.03,9.33,2.94,18.65,5.88,28,8.67,51.45,15.36,104.31,27.06,157.92,35.09,4.25-11.16,5.54-17.34,8.61-34.68Z"/>
  <path class="cls-2" d="m1917.49,222.04c-5.33-2.64-11.39-2.16-16.63,1.31-24.96,16.56-25.96,17.12-38.24,24.01-4.75,2.67-11.15,6.26-21.17,12.02-37.58,21.63-71.57,40.77-107.01,56.01-49.41,21.24-103.15,28.01-155.13,29.06,0,7.95-.03,13.99.56,21.52.32,4,.79,7.96,1.73,11.88.05.2.35,1.65.4,1.85,5.8-.14,12.02-.51,17.72-.76,49.12-2.11,88.22-8.76,123.06-20.94,37.06-12.95,70.41-30.86,110.14-52.91,36.01-19.98,77.61-45.48,86.67-51.49,5.49-3.64,8.42-9.45,8.02-15.91-.41-6.66-4.39-12.8-10.13-15.66Z"/>
</svg>